<?xml version="1.0" encoding="UTF-8"?>
<!DOCTYPE svg PUBLIC "-//W3C//DTD SVG 1.1//EN" "http://www.w3.org/Graphics/SVG/1.1/DTD/svg11.dtd">
<svg xmlns="http://www.w3.org/2000/svg" version="1.1" width="512px" height="512px" style="shape-rendering:geometricPrecision; text-rendering:geometricPrecision; image-rendering:optimizeQuality; fill-rule:evenodd; clip-rule:evenodd" xmlns:xlink="http://www.w3.org/1999/xlink">
<g><path style="opacity:0.998" fill="#323232" d="M 135.5,15.5 C 135.513,19.6501 133.513,22.1501 129.5,23C 97.1667,23.3333 64.8333,23.6667 32.5,24C 28.3333,25.5 25.5,28.3333 24,32.5C 23.5001,45.4957 23.3334,58.4957 23.5,71.5C 131.5,71.5 239.5,71.5 347.5,71.5C 356.833,71.5 366.167,71.5 375.5,71.5C 375.667,58.4957 375.5,45.4957 375,32.5C 372.073,25.7823 366.906,22.7823 359.5,23.5C 305.166,23.6667 250.832,23.5 196.5,23C 193.292,21.5627 191.625,19.0627 191.5,15.5C 190.959,12.3484 191.959,9.84836 194.5,8C 252.833,7.33333 311.167,7.33333 369.5,8C 380.667,11.1667 387.833,18.3333 391,29.5C 391.667,74.5 391.667,119.5 391,164.5C 389.152,167.041 386.652,168.041 383.5,167.5C 379.363,167.518 376.863,165.518 376,161.5C 375.5,136.836 375.333,112.169 375.5,87.5C 364.5,87.5 353.5,87.5 342.5,87.5C 236.167,87.5 129.833,87.5 23.5,87.5C 23.6667,197.501 23.5,307.501 23,417.5C 22.1501,421.513 19.6501,423.513 15.5,423.5C 12.3484,424.041 9.84836,423.041 8,420.5C 7.33333,290.167 7.33333,159.833 8,29.5C 11.1667,18.3333 18.3333,11.1667 29.5,8C 63.8333,7.33333 98.1667,7.33333 132.5,8C 135.041,9.84836 136.041,12.3484 135.5,15.5 Z"/></g>
<g><path style="opacity:0.975" fill="#333332" d="M 177.5,15.5 C 175.329,22.3477 170.496,25.0143 163,23.5C 155.748,25.028 151.248,22.3614 149.5,15.5C 149.146,12.5794 150.146,10.2461 152.5,8.5C 159.833,7.16667 167.167,7.16667 174.5,8.5C 176.854,10.2461 177.854,12.5794 177.5,15.5 Z"/></g>
<g><path style="opacity:1" fill="#fedf76" d="M 135.5,15.5 C 140.167,15.5 144.833,15.5 149.5,15.5C 151.248,22.3614 155.748,25.028 163,23.5C 170.496,25.0143 175.329,22.3477 177.5,15.5C 182.167,15.5 186.833,15.5 191.5,15.5C 191.625,19.0627 193.292,21.5627 196.5,23C 250.832,23.5 305.166,23.6667 359.5,23.5C 358.34,29.1387 357.34,34.8054 356.5,40.5C 284.528,39.3429 212.528,39.1763 140.5,40C 135.432,42.9825 134.265,47.1492 137,52.5C 137.903,53.7014 139.069,54.5348 140.5,55C 210.833,55.5 281.166,55.6667 351.5,55.5C 350.371,60.8877 349.037,66.221 347.5,71.5C 239.5,71.5 131.5,71.5 23.5,71.5C 23.3334,58.4957 23.5001,45.4957 24,32.5C 25.5,28.3333 28.3333,25.5 32.5,24C 64.8333,23.6667 97.1667,23.3333 129.5,23C 133.513,22.1501 135.513,19.6501 135.5,15.5 Z"/></g>
<g><path style="opacity:1" fill="#fdc144" d="M 359.5,23.5 C 366.906,22.7823 372.073,25.7823 375,32.5C 375.5,45.4957 375.667,58.4957 375.5,71.5C 366.167,71.5 356.833,71.5 347.5,71.5C 349.037,66.221 350.371,60.8877 351.5,55.5C 356.719,55.1133 359.386,52.28 359.5,47C 359.16,44.4887 358.16,42.322 356.5,40.5C 357.34,34.8054 358.34,29.1387 359.5,23.5 Z"/></g>
<g><path style="opacity:1" fill="#323232" d="M 356.5,40.5 C 358.16,42.322 359.16,44.4887 359.5,47C 359.386,52.28 356.719,55.1133 351.5,55.5C 281.166,55.6667 210.833,55.5 140.5,55C 139.069,54.5348 137.903,53.7014 137,52.5C 134.265,47.1492 135.432,42.9825 140.5,40C 212.528,39.1763 284.528,39.3429 356.5,40.5 Z"/></g>
<g><path style="opacity:1" fill="#383734" d="M 44.5,39.5 C 55.1666,40.0025 57.8333,44.8359 52.5,54C 43.4201,57.2149 39.2534,54.0482 40,44.5C 41.025,42.313 42.525,40.6464 44.5,39.5 Z"/></g>
<g><path style="opacity:1" fill="#383734" d="M 76.5,39.5 C 87.1666,40.0025 89.8333,44.8359 84.5,54C 75.4201,57.2149 71.2534,54.0482 72,44.5C 73.025,42.313 74.525,40.6464 76.5,39.5 Z"/></g>
<g><path style="opacity:1" fill="#383734" d="M 108.5,39.5 C 119.167,40.0025 121.833,44.8359 116.5,54C 107.42,57.2149 103.253,54.0482 104,44.5C 105.025,42.313 106.525,40.6464 108.5,39.5 Z"/></g>
<g><path style="opacity:1" fill="#ebe9eb" d="M 342.5,87.5 C 327.216,135.393 306.55,180.726 280.5,223.5C 252.751,201.925 225.418,179.758 198.5,157C 185.273,147.746 175.106,150.246 168,164.5C 167.5,181.497 167.333,198.497 167.5,215.5C 109.074,221.771 68.9073,252.104 47,306.5C 44.6196,314.069 42.6196,321.736 41,329.5C 39.3913,358.803 39.058,388.136 40,417.5C 41.4119,422.291 44.5786,424.124 49.5,423C 51.3289,422.727 52.8289,421.893 54,420.5C 60.6776,360.818 93.5109,324.985 152.5,313C 160.131,311.931 167.798,311.431 175.5,311.5C 175.5,316.833 175.5,322.167 175.5,327.5C 171.91,327.544 169.41,329.211 168,332.5C 167.5,342.161 167.334,351.828 167.5,361.5C 167.649,362.552 167.483,363.552 167,364.5C 123.13,405.008 75.297,440.008 23.5,469.5C 23.6663,462.492 23.4996,455.492 23,448.5C 21.5627,445.292 19.0627,443.625 15.5,443.5C 15.5,436.833 15.5,430.167 15.5,423.5C 19.6501,423.513 22.1501,421.513 23,417.5C 23.5,307.501 23.6667,197.501 23.5,87.5C 129.833,87.5 236.167,87.5 342.5,87.5 Z"/></g>
<g><path style="opacity:1" fill="#dad7da" d="M 342.5,87.5 C 353.5,87.5 364.5,87.5 375.5,87.5C 375.333,112.169 375.5,136.836 376,161.5C 376.863,165.518 379.363,167.518 383.5,167.5C 383.5,172.833 383.5,178.167 383.5,183.5C 362.756,184.738 349.59,195.405 344,215.5C 343.833,222.5 343.667,229.5 343.5,236.5C 343.381,244.573 343.881,252.573 345,260.5C 348.453,263.769 352.286,264.269 356.5,262C 357.893,260.829 358.727,259.329 359,257.5C 359.051,243.099 359.718,228.765 361,214.5C 365.47,204.46 372.97,199.793 383.5,200.5C 383.5,205.5 383.5,210.5 383.5,215.5C 379.91,215.544 377.41,217.211 376,220.5C 375.333,255.167 375.333,289.833 376,324.5C 377.542,327.892 380.042,329.892 383.5,330.5C 383.5,334.5 383.5,338.5 383.5,342.5C 370.513,343.036 362.68,336.703 360,323.5C 359.667,310.5 359.333,297.5 359,284.5C 355.108,278.741 350.441,278.074 345,282.5C 343.867,289.733 343.367,297.066 343.5,304.5C 340.587,322.72 345.587,338.22 358.5,351C 365.936,356.443 374.269,359.276 383.5,359.5C 383.5,364.5 383.5,369.5 383.5,374.5C 379.91,374.544 377.41,376.211 376,379.5C 375.667,412.167 375.333,444.833 375,477.5C 373.833,482.667 370.667,485.833 365.5,487C 254.5,487.667 143.5,487.667 32.5,487C 25.2567,483.483 22.2567,477.65 23.5,469.5C 75.297,440.008 123.13,405.008 167,364.5C 167.483,363.552 167.649,362.552 167.5,361.5C 172.399,374.61 181.399,378.444 194.5,373C 237.93,342.869 281.097,312.369 324,281.5C 328.952,275.225 329.619,268.558 326,261.5C 310.643,248.969 295.476,236.302 280.5,223.5C 306.55,180.726 327.216,135.393 342.5,87.5 Z"/></g>
<g><path style="opacity:1" fill="#333333" d="M 280.5,223.5 C 295.476,236.302 310.643,248.969 326,261.5C 329.619,268.558 328.952,275.225 324,281.5C 281.097,312.369 237.93,342.869 194.5,373C 181.399,378.444 172.399,374.61 167.5,361.5C 167.334,351.828 167.5,342.161 168,332.5C 169.41,329.211 171.91,327.544 175.5,327.5C 179.063,327.625 181.563,329.292 183,332.5C 183.499,337.155 183.666,341.821 183.5,346.5C 183.5,350.833 183.5,355.167 183.5,359.5C 185.308,359.509 186.975,359.009 188.5,358C 229.324,328.754 270.324,299.754 311.5,271C 298.17,259.347 284.503,248.18 270.5,237.5C 242.189,214.031 213.689,190.698 185,167.5C 183.975,187.749 182.975,208.082 182,228.5C 180.829,229.893 179.329,230.727 177.5,231C 120.517,233.667 81.6836,261.5 61,314.5C 56.1464,329.143 54.4797,344.143 56,359.5C 80.3432,322.225 114.843,301.058 159.5,296C 165.5,295.333 171.5,295.333 177.5,296C 183.448,298.433 184.948,302.6 182,308.5C 180.157,310.171 177.991,311.171 175.5,311.5C 167.798,311.431 160.131,311.931 152.5,313C 93.5109,324.985 60.6776,360.818 54,420.5C 52.8289,421.893 51.3289,422.727 49.5,423C 44.5786,424.124 41.4119,422.291 40,417.5C 39.058,388.136 39.3913,358.803 41,329.5C 42.6196,321.736 44.6196,314.069 47,306.5C 68.9073,252.104 109.074,221.771 167.5,215.5C 167.333,198.497 167.5,181.497 168,164.5C 175.106,150.246 185.273,147.746 198.5,157C 225.418,179.758 252.751,201.925 280.5,223.5 Z"/></g>
<g><path style="opacity:1" fill="#4be0a0" d="M 270.5,237.5 C 270.509,239.308 270.009,240.975 269,242.5C 248.911,272.263 226.911,300.596 203,327.5C 196.631,334.036 190.131,340.369 183.5,346.5C 183.666,341.821 183.499,337.155 183,332.5C 181.563,329.292 179.063,327.625 175.5,327.5C 175.5,322.167 175.5,316.833 175.5,311.5C 177.991,311.171 180.157,310.171 182,308.5C 184.948,302.6 183.448,298.433 177.5,296C 171.5,295.333 165.5,295.333 159.5,296C 114.843,301.058 80.3432,322.225 56,359.5C 54.4797,344.143 56.1464,329.143 61,314.5C 81.6836,261.5 120.517,233.667 177.5,231C 179.329,230.727 180.829,229.893 182,228.5C 182.975,208.082 183.975,187.749 185,167.5C 213.689,190.698 242.189,214.031 270.5,237.5 Z"/></g>
<g><path style="opacity:0.986" fill="#323232" d="M 383.5,183.5 C 404.423,183.92 417.589,194.253 423,214.5C 423.667,229.833 423.667,245.167 423,260.5C 422.167,261.333 421.333,262.167 420.5,263C 417.167,263.667 413.833,263.667 410.5,263C 409.667,262.167 408.833,261.333 408,260.5C 407.873,245.798 407.206,231.132 406,216.5C 401.937,206.262 394.437,200.929 383.5,200.5C 372.97,199.793 365.47,204.46 361,214.5C 359.718,228.765 359.051,243.099 359,257.5C 358.727,259.329 357.893,260.829 356.5,262C 352.286,264.269 348.453,263.769 345,260.5C 343.881,252.573 343.381,244.573 343.5,236.5C 343.667,229.5 343.833,222.5 344,215.5C 349.59,195.405 362.756,184.738 383.5,183.5 Z"/></g>
<g><path style="opacity:0.923" fill="#313131" d="M 475.5,199.5 C 486.485,198.457 489.985,203.124 486,213.5C 474.833,224.667 463.667,235.833 452.5,247C 445.054,250.441 440.387,248.275 438.5,240.5C 438.847,237.472 440.014,234.806 442,232.5C 453.062,221.271 464.228,210.271 475.5,199.5 Z"/></g>
<g><path style="opacity:0.996" fill="#323232" d="M 383.5,215.5 C 386.652,214.959 389.152,215.959 391,218.5C 391.667,254.5 391.667,290.5 391,326.5C 389.117,329.024 386.617,330.358 383.5,330.5C 380.042,329.892 377.542,327.892 376,324.5C 375.333,289.833 375.333,255.167 376,220.5C 377.41,217.211 379.91,215.544 383.5,215.5 Z"/></g>
<g><path style="opacity:1" fill="#3ec1a2" d="M 270.5,237.5 C 284.503,248.18 298.17,259.347 311.5,271C 270.324,299.754 229.324,328.754 188.5,358C 186.975,359.009 185.308,359.509 183.5,359.5C 183.5,355.167 183.5,350.833 183.5,346.5C 190.131,340.369 196.631,334.036 203,327.5C 226.911,300.596 248.911,272.263 269,242.5C 270.009,240.975 270.509,239.308 270.5,237.5 Z"/></g>
<g><path style="opacity:0.99" fill="#313131" d="M 442.5,263.5 C 461.836,263.333 481.17,263.5 500.5,264C 501.333,264.833 502.167,265.667 503,266.5C 503.667,269.833 503.667,273.167 503,276.5C 502.167,277.333 501.333,278.167 500.5,279C 481.167,279.667 461.833,279.667 442.5,279C 440.051,277.137 439.051,274.637 439.5,271.5C 439.078,268.218 440.078,265.552 442.5,263.5 Z"/></g>
<g><path style="opacity:0.987" fill="#323232" d="M 383.5,342.5 C 394.461,342.04 401.961,336.707 406,326.5C 407.206,311.868 407.873,297.202 408,282.5C 408.833,281.667 409.667,280.833 410.5,280C 413.833,279.333 417.167,279.333 420.5,280C 421.333,280.833 422.167,281.667 423,282.5C 423.667,297.833 423.667,313.167 423,328.5C 417.589,348.747 404.423,359.08 383.5,359.5C 374.269,359.276 365.936,356.443 358.5,351C 345.587,338.22 340.587,322.72 343.5,304.5C 343.367,297.066 343.867,289.733 345,282.5C 350.441,278.074 355.108,278.741 359,284.5C 359.333,297.5 359.667,310.5 360,323.5C 362.68,336.703 370.513,343.036 383.5,342.5 Z"/></g>
<g><path style="opacity:0.922" fill="#313131" d="M 443.5,295.5 C 446.978,295.184 450.312,295.684 453.5,297C 464.333,307.833 475.167,318.667 486,329.5C 489.491,334.533 489.325,339.367 485.5,344C 481.666,346.037 477.999,345.704 474.5,343C 463.333,331.833 452.167,320.667 441,309.5C 438.425,304.034 439.258,299.367 443.5,295.5 Z"/></g>
<g><path style="opacity:0.996" fill="#323232" d="M 383.5,374.5 C 386.961,374.146 389.461,375.479 391,378.5C 391.667,412.833 391.667,447.167 391,481.5C 387.833,492.667 380.667,499.833 369.5,503C 256.167,503.667 142.833,503.667 29.5,503C 18.3333,499.833 11.1667,492.667 8,481.5C 7.33333,469.833 7.33333,458.167 8,446.5C 9.84836,443.959 12.3484,442.959 15.5,443.5C 19.0627,443.625 21.5627,445.292 23,448.5C 23.4996,455.492 23.6663,462.492 23.5,469.5C 22.2567,477.65 25.2567,483.483 32.5,487C 143.5,487.667 254.5,487.667 365.5,487C 370.667,485.833 373.833,482.667 375,477.5C 375.333,444.833 375.667,412.167 376,379.5C 377.41,376.211 379.91,374.544 383.5,374.5 Z"/></g>
</svg>
